<svg width="20" height="12" viewBox="0 0 20 12" fill="none" xmlns="http://www.w3.org/2000/svg">
<path fill-rule="evenodd" clip-rule="evenodd" d="M8.9195 11.5419C9.2012 11.8352 9.58322 12 9.98154 12C10.3799 12 10.7619 11.8352 11.0436 11.5419L19.5414 2.69022C19.6849 2.54587 19.7993 2.37322 19.878 2.18231C19.9568 1.99141 19.9982 1.78609 19.9999 1.57832C20.0017 1.37056 19.9637 1.16452 19.8881 0.972218C19.8126 0.779919 19.7011 0.605214 19.56 0.458297C19.419 0.311381 19.2513 0.195195 19.0666 0.116519C18.882 0.0378436 18.6842 -0.00174633 18.4848 5.90794e-05C18.2853 0.00186449 18.0882 0.0450295 17.9049 0.127035C17.7217 0.209041 17.5559 0.328245 17.4173 0.477692L9.98154 8.22309L2.54576 0.477692C2.26244 0.192664 1.88299 0.034949 1.48912 0.0385141C1.09526 0.0420792 0.718494 0.206639 0.439978 0.496752C0.161462 0.786865 0.00347938 1.17932 5.67863e-05 1.58958C-0.00336581 1.99985 0.148045 2.3951 0.421679 2.69022L8.9195 11.5419Z" fill="#F4F6FF"/>
</svg>
