<svg width="12" height="20" viewBox="0 0 12 20" fill="none" xmlns="http://www.w3.org/2000/svg">
<path fill-rule="evenodd" clip-rule="evenodd" d="M0.458131 8.9195C0.164789 9.2012 0 9.58322 0 9.98154C0 10.3799 0.164789 10.7619 0.458131 11.0436L9.30978 19.5414C9.45413 19.6849 9.62678 19.7993 9.81769 19.878C10.0086 19.9568 10.2139 19.9982 10.4217 19.9999C10.6294 20.0017 10.8355 19.9637 11.0278 19.8881C11.2201 19.8126 11.3948 19.7011 11.5417 19.56C11.6886 19.419 11.8048 19.2513 11.8835 19.0666C11.9622 18.882 12.0017 18.6842 11.9999 18.4848C11.9981 18.2853 11.955 18.0882 11.873 17.9049C11.791 17.7217 11.6718 17.5559 11.5223 17.4173L3.77691 9.98154L11.5223 2.54576C11.8073 2.26244 11.9651 1.88299 11.9615 1.48912C11.9579 1.09526 11.7934 0.718494 11.5032 0.439978C11.2131 0.161462 10.8207 0.00347938 10.4104 5.67863e-05C10.0001 -0.00336581 9.6049 0.148045 9.30978 0.421679L0.458131 8.9195Z" fill="#F4F6FF"/>
</svg>
