<svg width="14" height="20" viewBox="0 0 14 20" fill="none" xmlns="http://www.w3.org/2000/svg">
<path d="M1.9996 0C2.30579 4.0391e-05 2.60131 0.112453 2.83012 0.315916C3.05893 0.519379 3.20511 0.799741 3.24093 1.10383L3.24968 1.25009V18.7513C3.24933 19.0699 3.12733 19.3764 2.9086 19.6081C2.68987 19.8398 2.39093 19.9792 2.07286 19.9978C1.75479 20.0165 1.44159 19.913 1.19725 19.7085C0.952919 19.504 0.795894 19.214 0.758262 18.8976L0.749512 18.7513V1.25009C0.749512 0.918543 0.881217 0.600579 1.11565 0.366142C1.35009 0.131705 1.66805 0 1.9996 0ZM12.0003 0C12.3065 4.0391e-05 12.602 0.112453 12.8308 0.315916C13.0596 0.519379 13.2058 0.799741 13.2416 1.10383L13.2504 1.25009V18.7513C13.25 19.0699 13.128 19.3764 12.9093 19.6081C12.6906 19.8398 12.3916 19.9792 12.0736 19.9978C11.7555 20.0165 11.4423 19.913 11.1979 19.7085C10.9536 19.504 10.7966 19.214 10.759 18.8976L10.7502 18.7513V1.25009C10.7502 0.918543 10.8819 0.600579 11.1163 0.366142C11.3508 0.131705 11.6687 0 12.0003 0Z" fill="#F4F6FF"/>
</svg>
