<svg width="12" height="20" viewBox="0 0 12 20" fill="none" xmlns="http://www.w3.org/2000/svg">
<path fill-rule="evenodd" clip-rule="evenodd" d="M11.5419 11.0805C11.8352 10.7988 12 10.4168 12 10.0185C12 9.62014 11.8352 9.23812 11.5419 8.95642L2.69022 0.458597C2.54587 0.315123 2.37322 0.200684 2.18231 0.121956C1.99141 0.0432281 1.78609 0.00178909 1.57832 5.72205e-05C1.37056 -0.00167656 1.16452 0.0363312 0.972218 0.111862C0.779919 0.187393 0.605214 0.298935 0.458297 0.43998C0.311381 0.581022 0.195195 0.748741 0.116519 0.933353C0.0378436 1.11797 -0.00174633 1.31577 5.90794e-05 1.51523C0.00186449 1.71469 0.0450295 1.91181 0.127035 2.09508C0.209041 2.27835 0.328245 2.44411 0.477692 2.58268L8.22309 10.0185L0.477692 17.4542C0.192664 17.7376 0.034949 18.117 0.0385141 18.5109C0.0420792 18.9047 0.206639 19.2815 0.496752 19.56C0.786865 19.8385 1.17932 19.9965 1.58958 19.9999C1.99985 20.0034 2.3951 19.852 2.69022 19.5783L11.5419 11.0805Z" fill="#F4F6FF"/>
</svg>
