<svg width="20" height="20" viewBox="0 0 20 20" fill="none" xmlns="http://www.w3.org/2000/svg">
<path fill-rule="evenodd" clip-rule="evenodd" d="M16.4117 5.55737C14.6017 2.92987 11.2902 1.64326 8.06301 2.47079C6.69598 2.8225 5.45046 3.53966 4.46 4.54538C3.46945 5.55119 2.77138 6.80767 2.44066 8.18006C2.10994 9.55245 2.15904 10.989 2.58269 12.3356C3.00635 13.6822 3.78858 14.8881 4.84549 15.8239C5.9024 16.7598 7.19412 17.3902 8.58211 17.6477C9.97011 17.9052 11.402 17.78 12.7243 17.2856C14.0465 16.7911 15.2092 15.9461 16.0877 14.841C16.9662 13.736 17.5273 12.4127 17.7109 11.013C17.7907 10.4047 18.3485 9.97619 18.9568 10.056C19.5651 10.1357 19.9936 10.6936 19.9138 11.3019C19.6778 13.1015 18.9564 14.8029 17.8269 16.2237C16.6974 17.6444 15.2025 18.7309 13.5025 19.3667C11.8024 20.0024 9.96141 20.1633 8.17684 19.8323C6.39227 19.5012 4.73149 18.6906 3.37261 17.4874C2.01372 16.2842 1.008 14.7337 0.463301 13.0024C-0.0813984 11.271 -0.144527 9.42405 0.280688 7.65955C0.705902 5.89504 1.60342 4.27957 2.87698 2.98638C4.15054 1.6932 5.7521 0.771084 7.50989 0.318937L7.51065 0.318743C11.38 -0.673653 15.368 0.708035 17.7759 3.67376V1.11376C17.7759 0.500225 18.2732 0.00285627 18.8868 0.00285627C19.5003 0.00285627 19.9977 0.500225 19.9977 1.11376V6.66828C19.9977 7.28181 19.5003 7.77918 18.8868 7.77918H18.2828C18.2657 7.77958 18.2487 7.77957 18.2317 7.77918H13.3323C12.7187 7.77918 12.2214 7.28181 12.2214 6.66828C12.2214 6.05474 12.7187 5.55737 13.3323 5.55737H16.4117Z" fill="#F4F6FF"/>
</svg>
